HIERARCHY
ROOT Hips
{
	OFFSET 0.000000 0.000000 0.000000
	CHANNELS 6 Xposition Yposition Zposition Zrotation Yrotation Xrotation 
	JOINT LHipJoint
	{
		OFFSET 0.000000 0.000000 0.000000
		CHANNELS 3 Zrotation Yrotation Xrotation
		JOINT LeftUpLeg
		{
			OFFSET 1.363060 -1.794630 0.839290
			CHANNELS 3 Zrotation Yrotation Xrotation
			JOINT LeftLeg
			{
				OFFSET 2.448110 -6.726130 0.000000
				CHANNELS 3 Zrotation Yrotation Xrotation
				JOINT LeftFoot
				{
					OFFSET 2.562200 -7.039590 0.000000
					CHANNELS 3 Zrotation Yrotation Xrotation
					JOINT LeftToeBase
					{
						OFFSET 0.157640 -0.433110 2.322550
						CHANNELS 3 Zrotation Yrotation Xrotation
						End Site
						{
							OFFSET 0.000000 0.000000 0.000000
						}
					}
				}
			}
		}
	}
	JOINT RHipJoint
	{
		OFFSET 0.000000 0.000000 0.000000
		CHANNELS 3 Zrotation Yrotation Xrotation
		JOINT RightUpLeg
		{
			OFFSET -1.305520 -1.794630 0.839290
			CHANNELS 3 Zrotation Yrotation Xrotation
			JOINT RightLeg
			{
				OFFSET -2.542530 -6.985550 0.000000
				CHANNELS 3 Zrotation Yrotation Xrotation
				JOINT RightFoot
				{
					OFFSET -2.568260 -7.056230 0.000000
					CHANNELS 3 Zrotation Yrotation Xrotation
					JOINT RightToeBase
					{
						OFFSET -0.164730 -0.452590 2.363150
						CHANNELS 3 Zrotation Yrotation Xrotation
						End Site
						{
							OFFSET 0.000000 0.000000 0.000000
						}
					}
				}
			}
		}
	}
}
MOTION
Frames: 14
Frame Time: 0.008333
-19.879704 16.064224 -0.703026 -24.151751 82.112382 8.143852 -9.012884 -1.154987 4.062926 -3.801933 -6.253019 -68.264006 -1.807467 0.927687 20.835326 0.484895 3.230226 11.920316 1.841600 -0.000000 -29.086000 9.929411 -2.827555 -1.790203 8.109288 -0.734922 -6.055681 1.870613 -1.237271 21.993358 0.457941 4.792444 5.016043 0.741300 0.000000 -82.216200
-19.718505 16.070953 -0.716578 -22.399235 82.488330 10.295883 -9.001810 -1.178594 4.010786 -4.285300 -6.656861 -68.835117 -1.778115 1.061087 22.293805 0.492436 3.233900 11.608325 1.824500 0.000000 -28.515900 10.091723 -2.877670 -1.904452 7.638453 -1.465765 -7.376313 1.695992 -1.454967 23.872185 0.424136 4.932335 6.789003 0.935300 -0.000000 -83.400200
-19.563371 16.085655 -0.731604 -20.480961 82.880737 12.593331 -8.971214 -1.224727 3.942151 -4.742739 -7.097669 -69.189565 -1.763074 1.150434 23.539149 0.506608 3.267698 10.913587 1.800700 -0.000001 -28.140600 10.267372 -2.910573 -2.043088 7.179877 -2.237950 -8.794885 1.516405 -1.681376 25.901754 0.363544 5.019891 8.659795 1.147101 -0.000000 -83.672701
-19.414335 16.107840 -0.748690 -18.582432 83.252192 14.847162 -8.922507 -1.285019 3.856505 -5.163735 -7.528488 -69.328455 -1.764088 1.198127 24.545101 0.524214 3.308728 9.937412 1.763900 -0.000001 -27.933599 10.450673 -2.919665 -2.196627 6.761157 -3.002088 -10.278159 1.335958 -1.907299 28.042665 0.272981 5.001246 10.569375 1.350200 0.000000 -82.945100
-19.270684 16.136909 -0.768151 -16.850215 83.573834 16.906453 -8.860467 -1.350294 3.755878 -5.547832 -7.911055 -69.259763 -1.782359 1.207990 25.290743 0.542776 3.340678 8.796508 1.712100 0.000000 -27.845700 10.634253 -2.900763 -2.357082 6.396898 -3.725534 -11.797869 1.159312 -2.125239 30.259487 0.153195 4.829107 12.438400 1.509900 -0.000000 -81.153600
-19.132221 16.172090 -0.790283 -15.485837 83.818125 18.564814 -8.794445 -1.410817 3.642703 -5.891836 -8.206015 -69.004153 -1.816793 1.187336 25.773459 0.559267 3.345302 7.605596 1.644300 -0.000000 -27.820500 10.805400 -2.851594 -2.518306 6.106947 -4.377613 -13.319728 0.989621 -2.327907 32.507415 0.007355 4.449201 14.184255 1.582000 0.000000 -78.425700
-18.997795 16.212538 -0.815031 -14.574493 83.976877 19.734760 -8.734818 -1.461334 3.519910 -6.203469 -8.391956 -68.584679 -1.865567 1.143351 25.998471 0.570502 3.313260 6.472419 1.565000 0.000000 -27.804400 10.954028 -2.775131 -2.676527 5.896155 -4.951104 -14.820515 0.830131 -2.512237 34.747682 -0.159591 3.824147 15.726275 1.526400 -0.000000 -74.959700
-18.866961 16.257408 -0.842191 -14.139421 84.053617 20.391839 -8.690309 -1.499636 3.389707 -6.492869 -8.458936 -68.028137 -1.925856 1.083269 25.983607 0.573051 3.238809 5.483815 1.480300 0.000000 -27.758200 11.073119 -2.677103 -2.829797 5.765084 -5.449433 -16.281081 0.682989 -2.677681 36.941849 -0.342895 2.930769 17.000571 1.313601 0.000000 -71.053500
-18.738864 16.305828 -0.871388 -14.136477 84.062255 20.580260 -8.666327 -1.525171 3.254920 -6.771333 -8.408429 -67.361815 -1.994701 1.013400 25.756621 0.563753 3.119054 4.699108 1.396000 0.000000 -27.661800 11.160414 -2.565141 -2.975925 5.709359 -5.883710 -17.685535 0.549362 -2.825131 39.052244 -0.538896 1.766610 17.967222 0.932500 0.000000 -67.056200
-18.612735 16.356969 -0.902228 -14.485221 84.021426 20.382240 -8.664067 -1.538557 3.117260 -7.048863 -8.251352 -66.612864 -2.069286 0.938882 25.353175 0.540640 2.953764 4.145579 1.315800 0.000000 -27.513900 11.217520 -2.445867 -3.114640 5.721109 -6.269462 -19.022749 0.429885 -2.956440 41.047583 -0.744599 0.355564 18.607382 0.393901 -0.000000 -63.263300
-18.487958 16.410038 -0.934270 -15.089620 83.952270 19.896515 -8.681743 -1.540405 2.979237 -7.332506 -8.006021 -65.806232 -2.147431 0.863387 24.812798 0.503241 2.744073 3.818863 1.240600 -0.000000 -27.327400 11.248627 -2.324904 -3.245884 5.788876 -6.624582 -20.284765 0.325067 -3.073620 42.902912 -0.957000 -1.252640 18.920560 -0.269400 -0.000001 -59.876000
-18.364379 16.464282 -0.967039 -15.849732 83.875289 19.224070 -8.715507 -1.531058 2.844110 -7.627194 -7.696241 -64.961737 -2.227651 0.789068 24.175753 0.452856 2.493443 3.686857 1.168800 0.000000 -27.121700 11.259217 -2.206775 -3.369638 5.898464 -6.967678 -21.466212 0.235519 -3.178788 44.600490 -1.172093 -2.985005 18.921226 -1.007600 0.000000 -56.979700
-18.241377 16.518995 -1.000263 -16.690825 83.807171 18.442988 -8.760518 -1.511287 2.714485 -7.932315 -7.347720 -64.095932 -2.308675 0.716867 23.480167 0.392255 2.207178 3.697436 1.097400 -0.000000 -26.917500 11.254526 -2.094042 -3.487462 6.034903 -7.315463 -22.565163 0.161904 -3.274010 46.128898 -1.384390 -4.753126 18.637740 -1.761000 -0.000001 -54.566000
-18.118963 16.573606 -1.033702 -17.555060 83.758639 17.613223 -8.811893 -1.481367 2.593038 -8.243959 -6.985758 -63.219613 -2.389382 0.646862 22.759167 0.325317 1.893486 3.788620 1.023600 0.000000 -26.733400 11.239157 -1.987527 -3.600966 6.183140 -7.680713 -23.581477 0.104402 -3.360832 47.482281 -1.586833 -6.462105 18.112472 -2.469200 0.000000 -52.574101
